# xmcd
#
# Track frame offsets:
#	150
#	14269
#	46968
#	62726
#
# Disc length: 1285 seconds
#
# Revision: 1
# Processed by: cddbd v1.5.2PL0 Copyright (c) Steve Scherf et al.
# Submitted via: audiograbber 1.83.01
#
DISCID=2b050304
DTITLE=Kate Ryan - Voyage Voyage
DYEAR=2007
DGENRE=Dance
TTITLE0=Voyage Voyage (Radio Edit)
TTITLE1=Voyage Voyage (Extended Mix)
TTITLE2=We all Belong (Eurogames 07 Edit)
TTITLE3=We all Belong (Extended Mix)
EXTD=
EXTT0=
EXTT1=
EXTT2=
EXTT3=
PLAYORDER=
